<?xml version="1.0" standalone="no"?>
<!DOCTYPE svg PUBLIC "-//W3C//DTD SVG 20010904//EN"
 "http://www.w3.org/TR/2001/REC-SVG-20010904/DTD/svg10.dtd">
<svg version="1.0" xmlns="http://www.w3.org/2000/svg"
 width="590.000000pt" height="423.000000pt" viewBox="0 0 590.000000 423.000000"
 preserveAspectRatio="xMidYMid meet">

<g transform="translate(0.000000,423.000000) scale(0.100000,-0.100000)"
fill="#000000" stroke="none">
<path d="M3130 3695 c0 -29 4 -35 21 -35 27 0 112 21 122 30 7 6 -104 40 -133
40 -5 0 -10 -16 -10 -35z"/>
<path d="M3142 3331 c3 -145 12 -165 75 -177 33 -6 63 -36 63 -61 0 -7 -9 -22
-20 -33 -17 -17 -33 -20 -104 -20 -103 0 -134 -19 -142 -85 -10 -83 36 -119
153 -116 40 1 83 -3 95 -10 64 -32 78 -110 30 -159 -34 -33 -84 -43 -189 -38
-39 1 -69 0 -66 -4 7 -12 219 -9 246 3 72 33 75 171 4 211 -12 7 -66 15 -121
18 -87 5 -100 8 -117 29 -26 32 -24 77 4 105 21 21 34 24 107 25 94 2 124 14
134 57 12 45 -11 82 -58 95 -70 20 -76 34 -76 170 0 79 -4 119 -11 119 -7 0
-10 -41 -7 -129z"/>
<path d="M2543 2974 c-3 -8 -2 -25 1 -38 l6 -23 75 15 c41 9 72 19 67 23 -4 4
-38 14 -75 22 -59 13 -69 13 -74 1z"/>
<path d="M2620 2648 c0 -66 18 -114 52 -143 30 -25 34 -26 149 -23 64 2 115 1
113 -1 -2 -3 6 -15 18 -29 30 -31 32 -124 5 -165 l-17 -27 -283 -1 c-316 0
-339 -4 -372 -59 -17 -29 -20 -56 -23 -160 -2 -88 0 -121 7 -110 10 13 11 13
13 0 1 -8 4 40 7 107 5 102 9 126 27 150 l21 28 299 5 c164 3 306 9 315 13 30
15 59 82 59 137 0 54 -10 81 -43 118 -19 20 -29 22 -135 22 -111 0 -114 1
-142 28 -20 20 -30 42 -35 80 -4 28 -4 56 0 62 3 6 -3 10 -14 10 -18 0 -21 -6
-21 -42z"/>
<path d="M1310 1214 l0 -394 85 0 85 0 0 160 0 160 105 0 105 0 0 60 0 60
-105 0 -105 0 0 110 0 110 125 0 126 0 -3 63 -3 62 -207 2 -208 2 0 -395z"/>
<path d="M1830 1213 l0 -393 85 0 85 0 0 394 0 393 -85 -1 -85 -1 0 -392z"/>
<path d="M2328 1603 l-228 -3 0 -60 0 -60 70 0 70 0 0 -330 0 -330 85 0 85 0
2 328 3 327 73 3 72 3 0 64 c0 36 -1 64 -2 63 -2 -2 -105 -4 -230 -5z"/>
<path d="M4094 1601 c-2 -2 -4 -179 -4 -393 l0 -388 80 0 81 0 -3 255 c-2 140
0 255 3 255 3 0 27 -76 54 -170 l48 -170 63 0 63 0 20 68 c11 37 32 112 47
167 15 55 31 104 36 110 4 5 8 -109 8 -253 l0 -262 75 0 75 0 0 389 0 390 -95
3 -96 3 -19 -65 c-10 -36 -37 -130 -60 -210 -23 -80 -46 -149 -50 -154 -5 -5
-16 18 -26 50 -9 33 -38 130 -63 217 l-46 159 -93 1 c-52 1 -96 0 -98 -2z"/>
<path d="M2935 1567 l-35 -35 0 -320 c0 -307 1 -320 21 -345 31 -40 79 -49
230 -45 191 5 209 20 209 178 l0 90 -85 0 -85 0 0 -70 c0 -80 -9 -89 -75 -80
l-40 5 0 270 0 270 43 3 c62 5 72 -8 72 -89 l0 -69 85 0 85 0 0 100 c0 96 -1
101 -29 132 l-29 33 -166 3 -167 3 -34 -34z"/>
<path d="M3534 1581 c-17 -11 -36 -34 -43 -52 -7 -21 -11 -131 -11 -318 0
-322 3 -340 70 -374 30 -15 57 -17 182 -15 234 5 230 -2 226 413 -4 382 7 365
-241 365 -132 0 -156 -3 -183 -19z m246 -121 c13 -24 10 -494 -3 -507 -15 -15
-107 -9 -117 7 -15 23 -13 493 2 508 7 7 33 12 60 12 37 0 50 -4 58 -20z"/>
</g>
</svg>
